<?xml version="1.0" encoding="UTF-8"?><svg id="Layer_1" xmlns="http://www.w3.org/2000/svg" viewBox="0 0 595.97 586.65"><path d="m404.57,120.48c.69-.09,1.47-.51,1.94-1.46.36-.73.35-1.49.06-2.1-.42-.9-1.43-1.44-1.99-1.72l-2.25-1.09-2.31,4.75,2.12,1.03c.61.29,1.53.69,2.43.59Z"/><path d="m217.95,99.38c.63-.22,1.61-.65,2.08-1.47.26-.44.46-1.17.14-2.13-.23-.68-.64-1.3-1.21-1.62-.5-.29-1.23-.49-2.14-.19l-1.91.65,1.76,5.18,1.27-.43Z"/><path d="m282.63,86.47c-.37-1.23-.64-2.41-.86-3.55l-.43.03c.04,1.34-.08,2.46-.29,3.63l-1.17,6.24,4.65-.31-1.89-6.03Z"/><path d="m254.04,487.43c-2.27-.48-3.91-.01-4.92.59-1.51.88-2.63,2.51-2.98,4.17-.37,1.74,0,3.6,1.04,4.97.86,1.14,2.31,2.12,4.26,2.53,1.95.41,3.67.11,4.92-.59,1.38-.76,2.56-2.19,2.97-4.12s.01-3.69-1.03-5.01c-.77-1.03-2.15-2.08-4.26-2.53Z"/><path d="m409.21,109.18c.38-.13.92-.46,1.29-1.24.4-.82.24-1.48.09-1.83-.35-.7-1.28-1.21-1.67-1.4l-1.64-.8-2.01,4.15,1.64.8c.61.29,1.6.56,2.3.32Z"/><path d="m297.99,45.88c-134.59,0-244.08,109.49-244.08,244.08s109.49,244.08,244.08,244.08,244.08-109.49,244.08-244.08S432.57,45.88,297.99,45.88Zm102.98,46.44l12.56,6.1c2.46,1.2,6.18,3.32,7.42,6.59.38.98,1.05,3.44-.52,6.68-.52,1.08-1.41,2.57-3.14,3.39-.9.42-2.14.67-3.36.55l-.17.24c1.02.87,1.7,1.89,2.18,3.2.75,2.07.69,3.96-.32,6.04-1.09,2.25-2.79,3.88-5.55,4.51-3.36.77-6.42-.4-8.45-1.38l-14.64-7.11,13.98-28.8Zm-36.93-12.25l1.09,6.37c.07.47.2,1.45.16,2.68l.32.09c.59-1.23,1.04-1.61,1.51-2.23l3.96-4.99,12.64,3.46-15.38,14.7-3.64,13.29-11.06-3.03,3.64-13.29-5.92-20.53,12.68,3.48Zm-54.16-8.64l11.88,1.28,2.32,13.43c.3,1.72.32,3.32.32,3.75l.29.03c.2-1.38.49-2.31,1.02-3.61l5.12-12.63,11.79,1.27,1.77,32.39-11.12-1.2.11-14.42c.02-1.11,0-1.83.15-3.17l-.19-.02c-.23.8-.65,2.01-.91,2.61l-6.31,14.24-6.78-.73-2.74-14.39c-.21-1.18-.34-2.21-.25-3.55l-.33-.04c-.07.62-.2,1.86-.31,2.48l-3.19,14.77-11.21-1.21,8.59-31.27Zm-35.57,1.26l12.84-.85,13.52,31.19-12.31.82-1.32-3.91-8.81.58-.6,4.03-12.26.81,8.95-32.68Zm-16.25,1.84l1.73,8.61-9.79,1.97.59,2.92,8.89-1.79,1.65,8.24-8.89,1.79.6,3.01,10.07-2.02,1.73,8.61-21.46,4.31-6.3-31.39,21.18-4.25Zm-43.01,10.78c3.18-1.08,6.62-1.85,10.34-.02,2.07,1.02,4.18,2.89,5.4,6.48.91,2.68.66,4.64.16,5.98-.52,1.45-1.71,2.86-3.36,3.83l.09.27c.7.12,1.44.37,2.07.87l10.29,7.91-12.68,4.31-7.38-7.38c-.25-.27-.43-.36-.73-.81l-.15.15,3.31,9.73-10.73,3.65-10.3-30.31,13.68-4.65Zm-37.31,20.46c1.02-3.02,3.31-7.05,8.69-9.71,2.15-1.06,4.73-1.91,7.39-2.27l5.71,10.78c-1.8-.61-4.85-1.14-7.47.16-1.63.81-2.82,2.2-3.3,3.83-.46,1.57-.23,3.33.52,4.83.77,1.55,2.07,2.78,3.72,3.3,1.27.39,3,.55,5.07-.47,2.93-1.45,4.07-4.21,4.47-5.59l5,10.86c-2.2,2.37-5.32,4.08-6.65,4.74-3.74,1.85-8.4,2.5-12.65,1.07-4.03-1.33-7.41-4.47-9.41-8.52-2.19-4.43-2.39-9.05-1.09-13.01Zm37.63,380.87c.64,1.25,1.82,2.72,4.2,3.75,3.37,1.45,6.46.68,7.85.16l-4.96,10.58c-3.56-.31-7.29-1.76-8.82-2.42-4.31-1.85-8.34-5.17-10.39-9.42-1.97-4.01-1.99-8.62-.24-12.67,1.91-4.44,5.47-7.4,9.64-8.77,3.2-1.02,8.16-1.65,14.35,1.02,2.48,1.07,5.1,2.6,7.39,4.51l-4.36,11.09c-.87-1.8-2.74-4.55-5.76-5.85-1.88-.81-3.89-.91-5.56-.3-1.6.59-2.85,1.84-3.5,3.35-.67,1.55-.67,3.34.15,4.97Zm56.9,11.02c-1.04,4.91-4,8.22-7.26,10.07-3.57,2.03-8.95,3.24-15.65,1.82s-11.13-4.71-13.57-8c-2.23-3.01-3.59-7.24-2.55-12.15,1.03-4.87,3.99-8.17,7.25-10.02,3.57-2.03,8.95-3.24,15.65-1.82,6.7,1.42,11.13,4.71,13.57,8,2.23,3.01,3.59,7.24,2.56,12.1Zm30.66-6.15l-10.94-.29-.08,3.19,9.59.26-.22,8.25-9.59-.25-.29,10.93-13.04-.35.83-31.29,23.98.64-.24,8.91Zm18.24,1.31l9.53-1.11.96,8.2-9.53,1.11,1.27,10.86-12.96,1.51-3.62-31.08,23.83-2.78,1.03,8.85-10.87,1.27.37,3.17Zm21.17,16.13l-8.24-30.19,23.41-6.39,2.26,8.28-10.82,2.96.77,2.81,9.83-2.68,2.16,7.92-9.83,2.68.79,2.9,11.13-3.04,2.26,8.28-23.72,6.48Zm31.97-9.58l-12.94-28.5,22.09-10.03,3.55,7.82-10.21,4.64,1.2,2.65,9.28-4.21,3.39,7.48-9.28,4.21,1.24,2.73,10.5-4.77,3.55,7.82-22.38,10.17Zm122.09-245c-7.14,7.68-13.97,10.62-23.41,14.69-1.61.69-3.29,1.42-5.08,2.21-14.6,6.48-22.58,11.42-28.99,15.38-2.14,1.32-4.19,2.59-6.3,3.8,1.88,7.54,3.19,15.02,3.91,22.3.4,4.03,1.46,18.17-.89,36.4,7.88,5.34,15,11.75,21.21,19.07,1.38,1.62,2.04,3.69,1.86,5.81-.18,2.12-1.17,4.05-2.79,5.42-1.44,1.22-3.26,1.89-5.15,1.89-2.35,0-4.57-1.03-6.08-2.82-3.7-4.37-7.8-8.37-12.23-11.93-1.43,5.97-3.18,11.73-5.24,17.2,4.1,4.65,7.89,9.64,11.29,14.85,2.4,3.68,1.35,8.63-2.32,11.03-1.3.85-2.81,1.29-4.35,1.29-2.71,0-5.2-1.35-6.68-3.62-1.66-2.55-3.43-5.04-5.3-7.45-2.36,4.3-4.95,8.4-7.74,12.24,3.36,6.52,6.3,13.32,8.77,20.24.71,2.01.61,4.17-.3,6.09-.91,1.92-2.52,3.38-4.52,4.09-.86.31-1.76.46-2.68.46-3.36,0-6.38-2.13-7.51-5.29-1.5-4.22-3.21-8.39-5.09-12.47-2.56,2.51-5.23,4.87-8,7.06-30.67,24.33-66.84,24.52-93.25,24.67-2.1.01-4.26.02-6.48.02-30.26,0-61.97-3-88.86-24.74-.31-.25-.62-.51-.93-.76-.85,2.08-1.64,4.16-2.38,6.22-1.13,3.17-4.15,5.29-7.51,5.29-.91,0-1.81-.16-2.68-.46-4.14-1.47-6.31-6.04-4.83-10.18,1.54-4.31,3.28-8.62,5.2-12.85-3.35-3.89-6.44-8.08-9.25-12.52-.08.11-.15.23-.22.34-1.48,2.27-3.98,3.62-6.68,3.62-1.55,0-3.05-.45-4.35-1.29-1.78-1.16-3.01-2.95-3.44-5.03-.44-2.08-.04-4.21,1.12-6,1.63-2.5,3.39-5.01,5.25-7.46-2.49-5.75-4.6-11.84-6.32-18.2-1.79,1.78-3.5,3.63-5.11,5.54-1.52,1.79-3.73,2.82-6.08,2.82-1.88,0-3.71-.67-5.15-1.89-1.62-1.38-2.62-3.3-2.79-5.42-.18-2.12.48-4.18,1.86-5.81,4.07-4.81,8.62-9.29,13.55-13.34-2.88-19.71-1.67-35.99-.99-42.22.73-6.74,1.98-13.7,3.7-20.72-3.09-1.65-5.89-3.38-9.02-5.31-6.41-3.96-14.39-8.9-28.99-15.38-1.79-.79-3.48-1.52-5.08-2.21-9.44-4.07-16.27-7.01-23.41-14.69-7.82-8.41-11.22-17.18-12.32-20.56-1.43-4.4-4.38-16.15-.91-30.26,1.03-4.16,7.05-25.38,24.8-34.66,2.75-1.44,5.7-2.54,8.77-3.26l.08-.02s.06-.01.09-.02l.43-.1c.61-.13,1.24-.26,1.88-.37.11-.02.23-.04.34-.05.72-.11,1.35-.2,1.99-.27.15-.02.29-.03.43-.04l.18-.02c.57-.06,1.15-.11,1.73-.14.16,0,.33-.02.5-.02h.19c.54-.03,1.08-.05,1.63-.05h.21c.33,0,.66,0,.99.01h.13c.33.01.65.02.98.04.49.02.98.05,1.47.08.26.02.53.04.79.07.45.04.84.08,1.22.12h.13c.24.04.48.07.72.1.49.06.99.13,1.48.21.33.05.65.1.98.16.44.08.88.15,1.32.24.28.05.57.11.86.17.38.08.75.16,1.13.24l.17.04c.22.05.44.1.67.15.55.13,1.1.27,1.66.42l.81.22c.41.11.81.22,1.21.34.28.08.56.17.85.25.37.11.74.23,1.11.35l.78.25c.58.19,1.15.39,1.72.59l.7.26c.39.14.78.28,1.16.43l.8.3c.37.14.75.29,1.12.44l.7.28c.56.23,1.12.46,1.67.7l.67.29c.38.16.75.33,1.12.49l.73.33c.39.17.77.35,1.15.53l.59.27c.54.25,1.08.51,1.61.77l2.36,1.17c.4.2.8.41,1.2.61l.43.22c.52.27,1.04.54,1.55.81l8.45,4.61c12.86,7.16,24.69,16.36,35.2,27.38,8.31-8.42,17.27-15.57,26.71-21.3l-12.89-49.03,50.05,18.33,22.12-30.66h4.81l22.12,30.66,50.05-18.33-13.14,49.96c8.31,5.19,16.25,11.48,23.67,18.75,10.12-10.31,21.41-18.96,33.63-25.76l8.45-4.6c.52-.27,1.03-.54,1.56-.81l2.28-1.15c.36-.18.73-.36,1.1-.54l.61-.3c.54-.26,1.08-.52,1.62-.77l.59-.27c.38-.17.76-.35,1.14-.52l.73-.33c.38-.17.75-.33,1.13-.49l.67-.29c.55-.24,1.11-.47,1.67-.7l.7-.28c.37-.15.75-.3,1.12-.44l.8-.31c.38-.14.76-.28,1.15-.42l.71-.26c.57-.2,1.14-.4,1.72-.59l.77-.25c.38-.12.75-.24,1.12-.35.28-.09.56-.17.84-.25.4-.12.8-.23,1.2-.34l.81-.22c.56-.15,1.11-.29,1.67-.42.21-.05.43-.1.65-.15l.18-.04c.38-.08.75-.17,1.13-.24.29-.06.58-.12.86-.17.43-.08.87-.16,1.3-.24.33-.06.66-.11.99-.16.49-.08.98-.15,1.47-.21.25-.03.49-.06.73-.09h.12c.39-.06.77-.1,1.16-.13.34-.03.6-.05.87-.07.48-.04.97-.06,1.46-.08.33-.01.65-.02.98-.03h.13c.33-.01.66-.02.99-.02h.24c.51,0,1.06.03,1.6.05h.19c.17.01.34.02.51.03.57.03,1.15.08,1.72.14l.18.02c.14.01.28.02.42.04.64.07,1.27.16,1.9.26.21.03.32.04.43.06.64.11,1.27.23,1.88.37h.01l.37.09h.04s.44.12.44.12c2.97.73,5.82,1.8,8.5,3.2,17.75,9.27,23.77,30.5,24.8,34.66h0c3.48,14.1.52,25.86-.91,30.26-1.1,3.38-4.5,12.15-12.32,20.56Z"/><path d="m297.99,20.35C149.08,20.35,28.37,141.05,28.37,289.96s120.71,269.61,269.61,269.61,269.61-120.71,269.61-269.61S446.89,20.35,297.99,20.35Zm178.96,448.57c-47.8,47.8-111.36,74.13-178.96,74.13s-131.15-26.33-178.96-74.13c-47.8-47.8-74.13-111.35-74.13-178.96s26.33-131.15,74.13-178.96c47.8-47.8,111.35-74.13,178.96-74.13s131.16,26.32,178.96,74.13c47.8,47.8,74.12,111.35,74.12,178.96s-26.33,131.15-74.12,178.96Z"/><path d="m235.54,299.64c-7.75,1.53-12.38,11.14-10.35,21.47s9.96,17.47,17.71,15.95,7.89-10.25,5.86-20.59c-2.03-10.33-5.47-18.36-13.22-16.83Zm1.49,16.84c-2.08,0-3.77-2.48-3.77-5.53s1.69-5.53,3.77-5.53,3.77,2.48,3.77,5.53-1.69,5.53-3.77,5.53Z"/><path d="m371.97,296.42c-7.72-1.65-11.3,6.31-13.5,16.61-2.2,10.3-2.2,19.03,5.52,20.68,7.72,1.65,15.77-5.35,17.97-15.65,2.2-10.3-2.27-19.99-9.99-21.64Zm-2.61,20.05c-2.08,0-3.77-2.48-3.77-5.53s1.69-5.53,3.77-5.53,3.77,2.48,3.77,5.53-1.69,5.53-3.77,5.53Z"/><path d="m305.9,372.95h-15.01c-3.87,0-5.55,4.89-2.51,7.27l7.51,5.88c1.47,1.15,3.54,1.15,5.02,0l7.51-5.88c3.04-2.38,1.36-7.27-2.51-7.27Z"/><path d="m283.86,410.53c-1.64,1.65-1.64,4.32.01,5.97,1.68,1.67,2.26,4.11,1.46,6.19-.96,2.52-3.62,3.61-5.7,3.6-2.83-.05-5.38-2.16-6.2-5.15-.62-2.25-2.93-3.57-5.18-2.95-2.25.62-3.57,2.94-2.95,5.18,1.8,6.58,7.64,11.26,14.2,11.36.07,0,.14,0,.22,0,5.05,0,11.12-2.77,13.51-9.03,1.98-5.2.65-11.15-3.39-15.17-1.65-1.64-4.32-1.64-5.97.01Z"/><path d="m332.3,418.18c-2.25-.62-4.57.71-5.18,2.95-.82,2.99-3.37,5.11-6.2,5.15-2.08,0-4.75-1.08-5.7-3.6-.79-2.09-.22-4.52,1.46-6.19,1.65-1.64,1.66-4.32.01-5.97-1.64-1.65-4.31-1.66-5.97-.01-4.04,4.02-5.37,9.98-3.39,15.17,2.38,6.26,8.46,9.03,13.51,9.03.07,0,.15,0,.22,0,6.56-.1,12.4-4.78,14.2-11.36.62-2.25-.71-4.57-2.95-5.18Z"/><path d="m505.97,204.45c-.56-2.29-6.08-23.45-22.89-32.23-2.62-1.37-5.31-2.34-8.05-2.97,0,0,0,0,0,0-.69-.16-1.39-.3-2.09-.42-.13-.02-.26-.04-.39-.06-.57-.09-1.15-.17-1.72-.24-.18-.02-.37-.03-.55-.05-.52-.05-1.05-.1-1.58-.13-.21-.01-.42-.02-.64-.02-.5-.02-1-.04-1.5-.04-.06,0-.13,0-.19,0-.34,0-.69.01-1.03.02-.3,0-.6.02-.91.03-.45.02-.9.04-1.35.08-.27.02-.53.04-.8.07-.36.03-.72.07-1.08.11-.27.03-.53.06-.8.09-.46.06-.92.12-1.38.2-.31.05-.61.1-.92.15-.41.07-.82.14-1.23.22-.27.05-.54.11-.81.16-.36.07-.71.15-1.06.23-.26.06-.52.12-.79.18-.53.13-1.05.26-1.58.4-.26.07-.51.14-.77.21-.38.11-.76.21-1.14.32-.27.08-.54.16-.8.24-.36.11-.71.22-1.07.33-.25.08-.5.16-.75.24-.55.18-1.1.37-1.65.57-.23.08-.45.16-.68.25-.37.13-.74.27-1.11.41-.26.1-.51.19-.77.29-.36.14-.72.28-1.08.43-.23.09-.45.18-.68.27-.54.22-1.08.45-1.62.67-.22.09-.44.19-.66.28-.36.16-.73.32-1.09.48-.24.11-.47.21-.71.32-.37.17-.75.34-1.12.51-.19.09-.38.18-.57.27-.53.25-1.05.5-1.57.75-.2.1-.4.2-.6.29-.36.18-.72.35-1.07.53-.21.11-.42.21-.63.32-.4.2-.79.4-1.18.6-.14.07-.28.14-.42.21-.51.26-1.02.53-1.53.79-.18.09-.36.19-.53.28-.36.19-.71.38-1.06.57-.18.1-.36.19-.54.29-.42.23-.84.46-1.26.68-.08.04-.15.08-.23.12-.5.27-.98.54-1.47.8-.15.09-.31.17-.46.25-.36.2-.72.4-1.07.59-.14.08-.28.15-.41.23-.45.25-.9.5-1.34.75-14.26,7.93-25.91,17.69-35.4,27.85-7.65-7.88-16.98-15.79-28.06-22.38,4.01-15.24,8.01-30.48,12.02-45.72-15.32,5.61-30.65,11.22-45.97,16.84-7.55-10.47-15.11-20.94-22.66-31.4h-.97c-7.55,10.47-15.11,20.94-22.66,31.4-15.32-5.61-30.65-11.22-45.97-16.84,3.93,14.94,7.86,29.88,11.79,44.82-12.51,7.21-22.84,16.16-31.1,24.98-9.77-10.78-21.92-21.19-36.97-29.56-.44-.24-.89-.49-1.34-.75-.14-.08-.27-.15-.41-.23-.35-.2-.71-.39-1.07-.59-.15-.08-.31-.17-.46-.25-.48-.27-.97-.53-1.47-.8-.08-.04-.15-.08-.23-.12-.42-.23-.84-.45-1.26-.68-.18-.1-.36-.19-.54-.29-.35-.19-.71-.38-1.06-.57-.18-.09-.35-.19-.53-.28-.5-.26-1.01-.53-1.53-.79-.14-.07-.28-.14-.42-.21-.39-.2-.78-.4-1.18-.6-.21-.11-.42-.21-.63-.32-.35-.18-.71-.35-1.07-.53-.2-.1-.4-.2-.6-.29-.52-.25-1.05-.5-1.57-.75-.19-.09-.38-.18-.57-.27-.37-.17-.74-.34-1.12-.51-.24-.11-.47-.21-.71-.32-.36-.16-.72-.32-1.09-.48-.22-.09-.44-.19-.66-.28-.54-.23-1.07-.45-1.62-.67-.23-.09-.45-.18-.68-.27-.36-.14-.72-.29-1.08-.43-.26-.1-.51-.2-.77-.29-.37-.14-.74-.28-1.11-.41-.23-.08-.45-.17-.68-.25-.55-.19-1.1-.38-1.65-.57-.25-.08-.5-.16-.75-.24-.35-.11-.71-.23-1.07-.33-.27-.08-.53-.16-.8-.24-.38-.11-.76-.22-1.14-.32-.26-.07-.51-.14-.77-.21-.52-.14-1.05-.27-1.58-.4-.26-.06-.52-.12-.79-.18-.35-.08-.71-.16-1.06-.23-.27-.06-.54-.11-.81-.16-.41-.08-.82-.15-1.23-.22-.31-.05-.61-.1-.92-.15-.46-.07-.92-.14-1.38-.2-.27-.03-.53-.06-.8-.09-.36-.04-.72-.08-1.08-.11-.27-.02-.53-.05-.8-.07-.45-.03-.9-.06-1.35-.08-.3-.01-.6-.02-.91-.03-.34,0-.69-.02-1.03-.02-.06,0-.13,0-.19,0-.5,0-1,.02-1.5.04-.21,0-.42.01-.64.02-.53.03-1.05.08-1.58.13-.18.02-.37.03-.55.05-.58.06-1.15.15-1.72.24-.13.02-.26.03-.39.06-.7.12-1.4.26-2.09.42,0,0,0,0,0,0-2.74.64-5.43,1.6-8.05,2.97-16.81,8.79-22.33,29.94-22.89,32.23-3.51,14.23.05,25.8.83,28.2.66,2.04,3.62,10.69,11.5,19.16,7.78,8.37,15.33,10.73,27.27,16.03,23.59,10.48,29.88,16.79,40.86,22.14-2.04,7.74-3.52,15.49-4.35,23.1-.64,5.89-1.96,22.99,1.29,43.38-6.18,4.87-11.07,9.88-14.72,14.19-1.51,1.78-1.29,4.44.49,5.95.79.67,1.76,1,2.72,1,1.2,0,2.39-.51,3.22-1.49,2.65-3.13,6-6.65,10.08-10.2,1.89,8.43,4.63,17.2,8.55,25.8-2.26,2.89-4.42,5.88-6.44,8.99-1.27,1.95-.72,4.57,1.23,5.84.71.46,1.51.69,2.3.69,1.38,0,2.73-.68,3.54-1.92,1.16-1.78,2.37-3.52,3.61-5.22,3.66,6.54,8.08,12.88,13.43,18.8-2.26,4.79-4.3,9.71-6.1,14.75-.78,2.19.36,4.61,2.56,5.39.47.17.95.25,1.42.25,1.73,0,3.36-1.08,3.97-2.8,1.36-3.8,2.86-7.53,4.49-11.19,1.51,1.39,3.07,2.75,4.71,4.07,27.6,22.31,60.67,23.9,86.5,23.9,2.21,0,4.37-.01,6.46-.02,25.86-.14,61.28-.33,90.94-23.85,4.18-3.32,7.95-6.87,11.37-10.59,2.88,5.7,5.41,11.6,7.58,17.68.62,1.73,2.24,2.8,3.97,2.8.47,0,.95-.08,1.42-.25,2.19-.78,3.34-3.2,2.56-5.39-2.7-7.56-5.92-14.86-9.65-21.85,4.57-5.98,8.34-12.29,11.46-18.7,3.28,3.84,6.34,7.91,9.14,12.21.81,1.24,2.16,1.92,3.54,1.92.79,0,1.59-.22,2.3-.68,1.95-1.27,2.5-3.89,1.23-5.84-3.75-5.76-7.92-11.13-12.47-16.11,3.28-8.3,5.57-16.61,7.16-24.5,7.6,5.34,13.39,11.16,17.5,16.01.83.99,2.02,1.49,3.22,1.49.96,0,1.93-.33,2.72-1,1.78-1.51,2-4.17.49-5.95-5.05-5.96-12.45-13.27-22.38-19.67,2.74-19.25,1.53-34.44,1.19-37.86-.8-8.09-2.34-16.32-4.53-24.54,9.45-5.06,16.55-11.16,38.12-20.74,11.94-5.3,19.49-7.66,27.27-16.03,7.88-8.47,10.84-17.13,11.5-19.16.78-2.4,4.34-13.97.83-28.2Zm-199.96-24.27c.8-2.24,1.54-4.53,2.21-6.87,3.93,4.02,6.56,11.31,6.56,19.63,0,9.23-3.23,17.18-7.88,20.82.04-3.2-.3-6.3-1.04-9.25-.72-2.86-1.6-4.78-2.31-6.33-.86-1.89-1.43-3.14-1.49-5.44-.06-2.43.52-3.86,1.81-7.01.59-1.45,1.32-3.25,2.15-5.56Zm-4.83-10.18c.7,0,1.38.09,2.05.26-.75,2.74-1.58,5.42-2.51,8.02-.79,2.2-1.47,3.87-2.07,5.34-1.39,3.42-2.31,5.68-2.22,9.28.09,3.45,1.02,5.48,2,7.63.68,1.48,1.37,3.01,1.97,5.37.79,3.14,1.04,6.49.78,10-7.51,0-13.59-10.28-13.59-22.95s6.09-22.95,13.6-22.95Zm-130.39,90.33c-2.17-.24-4.36-4.88-4.37-11.17-4.61,4.89-11.78,4.21-14.57.49-2.2-2.94-1.84-8,1.46-11.66-5.82,1-10.76-1.42-11.66-4.37-1.03-3.39,2.7-9.32,10.2-10.68,2.23,3.58,5.09,7.57,8.74,11.66,5.94,6.64,12.02,11.33,17,14.57-1.1,7.05-4.54,11.42-6.8,11.17Zm3.64,53.65c.72-6.58,2.01-13.55,3.88-20.71,1.96.72,4.1,1.43,6.5,2.14,2.89.86,5.67,1.59,8.32,2.2.1,11.07.36,26.62,5.86,42.27-1.38.42-2.75.87-4.11,1.36-7.49,2.68-14.09,6.09-19.83,9.81-2.3-17.49-1.17-31.88-.61-37.07Zm2.1,46.24c5.93-4.19,12.97-8.1,21.18-11.04,1.48-.53,2.98-1,4.49-1.45,2.35,4.95,5.33,9.83,9.08,14.51-1.76,1.05-3.5,2.13-5.2,3.26-8.22,5.48-15.67,11.91-22.31,19.18-3.4-8.21-5.71-16.52-7.25-24.46Zm23,50.68c-4.76-5.65-8.67-11.68-11.87-17.88,6.75-7.88,14.48-14.75,23.12-20.51,2.05-1.37,4.15-2.67,6.28-3.9,2.6,2.57,5.4,4.93,8.36,7.1-2.99,3.07-5.86,6.25-8.58,9.54-6.6,7.98-12.38,16.55-17.31,25.65Zm185.77,11.98c-27.42,21.75-59.81,21.92-85.83,22.06-26.75.14-60.05.32-87.7-22.04-2.17-1.75-4.21-3.58-6.15-5.46,4.94-9.55,10.86-18.52,17.72-26.81,2.93-3.54,6.04-6.95,9.3-10.21,3.77,2.17,7.76,4.08,11.99,5.7,3.73,5.36,11.3,13.76,24.04,17.83,11.61,3.7,21.82,1.91,27.66.15,3.59,1.4,10.28,3.46,18.39,3.46,5.99,0,12.74-1.13,19.58-4.49,9.18-4.51,14.93-11.27,18.32-16.62,6.98-2.04,13.37-4.84,19.14-8.36,4.13,3.96,8.03,8.16,11.67,12.55,5.3,6.41,10.04,13.23,14.21,20.41-3.62,4.2-7.7,8.18-12.32,11.84Zm17.9-18.96c-3.97-6.53-8.4-12.76-13.29-18.66-3.49-4.21-7.21-8.24-11.13-12.08,2.56-2.03,4.96-4.22,7.21-6.59,3.43,1.81,6.76,3.78,9.98,5.93,6.18,4.12,11.89,8.82,17.12,14.04-2.68,5.93-5.94,11.78-9.89,17.37Zm13.32-25.8c-4.92-4.63-10.2-8.85-15.86-12.62-2.96-1.98-6.02-3.81-9.15-5.52,3.19-4.39,5.71-8.98,7.69-13.66,3.34.77,6.62,1.72,9.84,2.87,4.93,1.76,9.42,3.88,13.51,6.19-1.3,7.28-3.23,15-6.04,22.75Zm7.36-31.63c-3.72-1.94-7.7-3.72-12-5.26-3.22-1.15-6.49-2.11-9.81-2.91,4.49-14.91,4.51-29.99,4.52-41.51v-.11c1.52-.4,3.08-.83,4.67-1.3,3.59-1.07,6.63-2.13,9.32-3.22,1.96,7.53,3.29,14.85,3.97,21.75.3,3.03,1.34,15.94-.67,32.56Zm32.79-113.85c-.9,2.96-5.83,5.37-11.66,4.37,3.3,3.66,3.66,8.72,1.46,11.66-2.79,3.73-9.96,4.41-14.57-.49,0,6.29-2.2,10.93-4.37,11.17-2.26.25-5.7-4.12-6.8-11.17,4.97-3.24,11.06-7.93,17-14.57,3.65-4.08,6.51-8.08,8.74-11.66,7.5,1.36,11.22,7.3,10.2,10.68Zm-11.98-28.67c-1.76,3.37-3.28,6.4-4.63,9.07-5.01,9.97-7.77,15.45-14.38,22.34-3.88,4.04-8.07,7.31-14.41,11.55-2.07,1.39-4.39,2.89-6.99,4.54-.97.62-1.98,1.26-3.03,1.92-1.17.74-2.37,1.5-3.66,2.31-.04.02-.07.04-.11.07-1.18.74-2.39,1.47-3.58,2.2.97,2.87,1.72,5.7,2.3,8.51,1.96,9.56,1.95,18.86,1.94,28.5v1.81c0,.6,0,1.21,0,1.82-.02,11.34-.24,24.96-4.36,38.07-3.91-.59-7.87-.94-11.86-1.05-2.33-.06-4.27,1.77-4.33,4.1-.07,2.33,1.77,4.27,4.1,4.33,3.02.08,6.01.33,8.98.71-1.8,3.9-4.05,7.7-6.83,11.32-3.86-1.77-7.81-3.35-11.85-4.71-2.21-.74-4.6.44-5.35,2.65-.75,2.21.44,4.6,2.65,5.35,2.93.99,5.81,2.11,8.64,3.33-1.71,1.64-3.51,3.18-5.4,4.62-2.77-2.44-5.61-4.8-8.55-7.04-1.85-1.41-4.5-1.06-5.91.79s-1.06,4.5.79,5.91c2.16,1.65,4.27,3.36,6.33,5.13-4.98,2.78-10.46,5-16.42,6.62l-1.67.45-.87,1.5c-2.64,4.53-7.49,10.77-15.65,14.78-14.37,7.06-28.43,1.97-32.39.24l-1.5-.66-1.55.53c-4.46,1.53-13.5,3.61-23.89.29-11.64-3.71-18.09-12.12-20.32-15.56l-.77-1.18-1.33-.48c-3.41-1.24-6.65-2.71-9.74-4.35,2.85-2.54,5.79-4.99,8.83-7.31,1.85-1.42,2.2-4.06.79-5.91-1.42-1.85-4.06-2.2-5.91-.79-3.88,2.97-7.62,6.12-11.2,9.43-2.32-1.63-4.52-3.38-6.59-5.26,4.05-1.92,8.21-3.63,12.48-5.07,2.21-.75,3.39-3.14,2.65-5.35-.75-2.21-3.14-3.39-5.35-2.65-5.49,1.85-10.82,4.1-15.96,6.69-3.36-3.99-6.06-8.17-8.23-12.43,4.75-.92,9.59-1.46,14.48-1.59,2.33-.06,4.17-2,4.1-4.33s-2.01-4.16-4.33-4.1c-5.99.17-11.9.89-17.68,2.12-4.97-13.68-5.44-27.57-5.56-38.47,0-.86-.02-1.7-.02-2.52v-.38c-.08-8.43-.15-17.97,1.53-27.94.49-2.87,1.12-5.78,1.94-8.7-1.25-.76-2.5-1.53-3.74-2.3l-3.72-2.31-3.29-2.08c-2.63-1.66-4.99-3.17-7.11-4.56-7.7-5.04-12.45-8.6-16.79-13.13-6.61-6.89-9.37-12.37-14.38-22.34-1.34-2.67-2.87-5.7-4.63-9.07-4.66-8.92-9.75-17.86-15.2-26.71,12.36,2,25.09,9.09,34.77,14.47,14.35,7.98,26.01,18.06,35.41,28.57,1.93,2.16,3.76,4.33,5.5,6.5.22.27.43.54.65.81.9,1.15,1.78,2.29,2.63,3.44.89,1.19,1.75,2.38,2.58,3.56,1.84-2.37,3.77-4.55,5.73-6.55-.83-1.15-1.68-2.3-2.55-3.45-.85-1.11-1.72-2.23-2.62-3.34-.26-.32-.51-.64-.77-.96,8.18-8.88,17.46-16.74,27.82-22.99l1.2,4.55c.36,1.39.73,2.77,1.09,4.16.36,1.39.73,2.77,1.09,4.16l2.38,9.05c8.79,4.39,26.6,11.83,50.18,11.66,22.69-.17,39.84-7.29,48.56-11.66.65-2.49,1.31-4.98,1.96-7.47.37-1.39.73-2.78,1.1-4.18l1.1-4.17,1.4-5.34c9.13,5.65,17.4,12.54,24.79,20.26-.51.6-1.01,1.2-1.5,1.81-.9,1.1-1.77,2.2-2.62,3.3-.87,1.12-1.72,2.24-2.54,3.36,2.03,1.89,4.03,3.95,5.97,6.19.83-1.15,1.68-2.3,2.56-3.45.85-1.12,1.74-2.23,2.64-3.35.4-.5.81-.99,1.22-1.49,1.73-2.09,3.55-4.17,5.46-6.24,9.1-9.84,20.24-19.22,33.75-26.74,9.69-5.39,22.41-12.47,34.77-14.47-5.45,8.84-10.54,17.78-15.2,26.71Z"/></svg>